<svg id="Group_20424" data-name="Group 20424" xmlns="http://www.w3.org/2000/svg" xmlns:xlink="http://www.w3.org/1999/xlink" width="40" height="40" viewBox="0 0 40 40">
  <defs>
    <linearGradient id="linear-gradient" x1="0.229" y1="0.951" x2="0.626" y2="0.291" gradientUnits="objectBoundingBox">
      <stop offset="0" stop-color="#60fc7c"/>
      <stop offset="1" stop-color="#569881"/>
    </linearGradient>
    <linearGradient id="linear-gradient-2" x1="0" y1="0.5" x2="1" y2="0.5" xlink:href="#linear-gradient"/>
  </defs>
  <g id="Group_20420" data-name="Group 20420">
    <path id="Path_17697" data-name="Path 17697" d="M-32.154,290.614a20.023,20.023,0,0,1-20-20,20.023,20.023,0,0,1,20-20,20.022,20.022,0,0,1,20,20A20.022,20.022,0,0,1-32.154,290.614Zm0-38.5a18.516,18.516,0,0,0-18.5,18.5,18.517,18.517,0,0,0,18.5,18.5,18.517,18.517,0,0,0,18.5-18.5A18.517,18.517,0,0,0-32.154,252.118Z" transform="translate(52.154 -250.614)" fill="url(#linear-gradient)"/>
  </g>
  <path id="Path_13607" data-name="Path 13607" d="M-19.2,271.2a1.767,1.767,0,0,0,1.767-1.767,1.766,1.766,0,0,0-1.767-1.766,1.766,1.766,0,0,0-1.767,1.766A1.767,1.767,0,0,0-19.2,271.2Zm0,1.767a3.534,3.534,0,0,0,3.534-3.534A3.534,3.534,0,0,0-19.2,265.9a3.534,3.534,0,0,0-3.534,3.534h0c0,.11.005.221.016.329l-8.244,4.123a3.534,3.534,0,0,0-4.992.241,3.535,3.535,0,0,0,.241,4.993,3.533,3.533,0,0,0,4.751,0l8.244,4.122c-.01.109-.015.219-.016.33A3.533,3.533,0,0,0-19.2,287.1a3.534,3.534,0,0,0,3.532-3.535,3.533,3.533,0,0,0-3.534-3.532,3.534,3.534,0,0,0-2.91,1.532l-7.874-3.937a3.55,3.55,0,0,0,0-2.257l7.874-3.934A3.53,3.53,0,0,0-19.2,272.97Zm0,12.37a1.766,1.766,0,0,0,1.767-1.766,1.767,1.767,0,0,0-1.767-1.767,1.767,1.767,0,0,0-1.767,1.767h0A1.766,1.766,0,0,0-19.2,285.338Zm-12.37-8.839a1.767,1.767,0,0,1-1.759,1.775,1.767,1.767,0,0,1-1.775-1.759,1.767,1.767,0,0,1,1.759-1.775h.008a1.767,1.767,0,0,1,1.767,1.762Z" transform="translate(44.864 -256.501)" fill-rule="evenodd" fill="url(#linear-gradient-2)"/>
</svg>
