<svg id="Group_20422" data-name="Group 20422" xmlns="http://www.w3.org/2000/svg" xmlns:xlink="http://www.w3.org/1999/xlink" width="40" height="40" viewBox="0 0 40 40">
  <defs>
    <linearGradient id="linear-gradient" y1="0.5" x2="1" y2="0.5" gradientUnits="objectBoundingBox">
      <stop offset="0" stop-color="#007ab9"/>
      <stop offset="1" stop-color="#3cf"/>
    </linearGradient>
    <linearGradient id="linear-gradient-3" x1="-0.001" y1="0.63" x2="0.998" y2="0.63" xlink:href="#linear-gradient"/>
    <linearGradient id="linear-gradient-4" x1="-0.002" y1="0.503" x2="1" y2="0.503" xlink:href="#linear-gradient"/>
    <linearGradient id="linear-gradient-5" x1="-0.004" y1="0.518" x2="1.002" y2="0.518" xlink:href="#linear-gradient"/>
  </defs>
  <g id="Group_20410" data-name="Group 20410">
    <path id="Path_17690" data-name="Path 17690" d="M-89.216,242.947a20.022,20.022,0,0,1-20-20,20.023,20.023,0,0,1,20-20,20.023,20.023,0,0,1,20,20A20.022,20.022,0,0,1-89.216,242.947Zm0-38.5a18.517,18.517,0,0,0-18.5,18.5,18.517,18.517,0,0,0,18.5,18.5,18.517,18.517,0,0,0,18.5-18.5A18.516,18.516,0,0,0-89.216,204.451Z" transform="translate(109.216 -202.947)" fill="url(#linear-gradient)"/>
  </g>
  <g id="Group_20416" data-name="Group 20416" transform="translate(7.459 9.67)">
    <g id="Group_20411" data-name="Group 20411">
      <path id="Path_17691" data-name="Path 17691" d="M-72.941,219.615a10.29,10.29,0,0,1-2.533.724c.408-.069,1.01-.807,1.251-1.106a4.67,4.67,0,0,0,.844-1.536c.022-.044.039-.1-.006-.132a.142.142,0,0,0-.134.011,12.942,12.942,0,0,1-3.01,1.152.2.2,0,0,1-.207-.055A2.435,2.435,0,0,0-77,218.4a5.327,5.327,0,0,0-1.458-.893,5.077,5.077,0,0,0-2.236-.36,5.344,5.344,0,0,0-2.121.6,5.477,5.477,0,0,0-1.712,1.4,5.271,5.271,0,0,0-1.022,2.047,5.555,5.555,0,0,0-.054,2.161c.017.121.006.137-.1.121a16.073,16.073,0,0,1-10.342-5.264c-.121-.137-.186-.137-.285.011a5.244,5.244,0,0,0,.894,6.2c.2.192.411.384.636.559a5.254,5.254,0,0,1-2-.559c-.121-.076-.181-.032-.192.1a3.125,3.125,0,0,0,.032.593,5.3,5.3,0,0,0,3.268,4.227,3.069,3.069,0,0,0,.663.2,5.908,5.908,0,0,1-1.957.061c-.143-.028-.2.044-.143.181a5.505,5.505,0,0,0,4.112,3.443c.187.032.373.032.56.076-.011.017-.022.017-.033.033-.461.7-2.063,1.228-2.808,1.489a10.062,10.062,0,0,1-4.266.546c-.229-.034-.278-.032-.34,0s-.008.094.066.153c.29.192.587.363.888.527a14.091,14.091,0,0,0,2.851,1.141,15.187,15.187,0,0,0,14.743-3.447c3.021-3,4.08-7.142,4.08-11.286,0-.162.192-.252.306-.337a9.934,9.934,0,0,0,2-2.087.605.605,0,0,0,.123-.4v-.022C-72.847,219.549-72.839,219.569-72.941,219.615Z" transform="translate(97.93 -217.139)" fill="url(#linear-gradient)"/>
    </g>
    <g id="Group_20412" data-name="Group 20412" transform="translate(7.449 20.571)">
      <path id="Path_17692" data-name="Path 17692" d="M-88.482,243.228Z" transform="translate(88.482 -243.228)" fill="#fff" fill-rule="evenodd"/>
    </g>
    <g id="Group_20413" data-name="Group 20413" transform="translate(7.258 20.571)">
      <path id="Path_17693" data-name="Path 17693" d="M-88.533,243.228c-.033,0-.414,0,0,0Z" transform="translate(88.725 -243.228)" fill-rule="evenodd" fill="url(#linear-gradient-3)"/>
    </g>
    <g id="Group_20414" data-name="Group 20414" transform="translate(8.294 20.575)">
      <path id="Path_17694" data-name="Path 17694" d="M-87.411,243.251c0-.042.444,0,0,0C-87.411,243.229-87.357,243.251-87.411,243.251Z" transform="translate(87.411 -243.232)" fill-rule="evenodd" fill="url(#linear-gradient-4)"/>
    </g>
    <g id="Group_20415" data-name="Group 20415" transform="translate(17.062 0.03)">
      <path id="Path_17695" data-name="Path 17695" d="M-76.188,217.177a.088.088,0,0,1-.1,0Z" transform="translate(76.291 -217.177)" fill-rule="evenodd" fill="url(#linear-gradient-5)"/>
    </g>
  </g>
</svg>
