<svg xmlns="http://www.w3.org/2000/svg" width="141.448" height="57.934" viewBox="0 0 141.448 57.934">
  <g id="Group_17851" data-name="Group 17851" transform="translate(-7167.037 13237.967)">
    <g id="Group_17765" data-name="Group 17765" transform="translate(7167.037 -13192.524)">
      <g id="Group_17740" data-name="Group 17740" transform="translate(27.441 0)">
        <g id="Group_17739" data-name="Group 17739">
          <path id="Path_13218" data-name="Path 13218" d="M286.269,867.105a6.089,6.089,0,0,1,6.246-6.246,5.991,5.991,0,0,1,5.148,2.78l-2.368,1.373a3.106,3.106,0,0,0-2.78-1.476,3.57,3.57,0,0,0,0,7.138,3.086,3.086,0,0,0,2.78-1.476l2.368,1.373a5.948,5.948,0,0,1-5.148,2.78A6.089,6.089,0,0,1,286.269,867.105Z" transform="translate(-286.269 -860.859)" fill="#fff"/>
        </g>
      </g>
      <g id="Group_17742" data-name="Group 17742" transform="translate(101.684 0)">
        <g id="Group_17741" data-name="Group 17741">
          <path id="Path_13219" data-name="Path 13219" d="M677.918,867.105a6.089,6.089,0,0,1,6.246-6.246,5.991,5.991,0,0,1,5.148,2.78l-2.368,1.373a3.106,3.106,0,0,0-2.78-1.476,3.57,3.57,0,0,0,0,7.138,3.086,3.086,0,0,0,2.78-1.476l2.368,1.373a5.948,5.948,0,0,1-5.148,2.78A6.089,6.089,0,0,1,677.918,867.105Z" transform="translate(-677.918 -860.859)" fill="#fff"/>
        </g>
      </g>
      <g id="Group_17744" data-name="Group 17744" transform="translate(51.462 0.24)">
        <g id="Group_17743" data-name="Group 17743">
          <path id="Path_13220" data-name="Path 13220" d="M415.73,862.126v12.012h-2.745V862.126Z" transform="translate(-412.985 -862.126)" fill="#fff"/>
        </g>
      </g>
      <g id="Group_17746" data-name="Group 17746" transform="translate(114.816 0.24)">
        <g id="Group_17745" data-name="Group 17745">
          <path id="Path_13221" data-name="Path 13221" d="M749.94,862.126v12.012H747.2V862.126Z" transform="translate(-747.195 -862.126)" fill="#fff"/>
        </g>
      </g>
      <g id="Group_17748" data-name="Group 17748" transform="translate(72.667 0.24)">
        <g id="Group_17747" data-name="Group 17747">
          <path id="Path_13222" data-name="Path 13222" d="M527.593,862.126v12.012h-2.745V862.126Z" transform="translate(-524.848 -862.126)" fill="#fff"/>
        </g>
      </g>
      <g id="Group_17750" data-name="Group 17750" transform="translate(58.49 0.24)">
        <g id="Group_17749" data-name="Group 17749" transform="translate(0)">
          <path id="Path_13223" data-name="Path 13223" d="M462.072,874.138h-2.745v-6.984l-3.106,5.1h-.309l-3.106-5.1v6.984h-2.746V862.126h2.746l3.26,5.337,3.26-5.337h2.745Z" transform="translate(-450.061 -862.126)" fill="#fff"/>
        </g>
      </g>
      <g id="Group_17752" data-name="Group 17752" transform="translate(77.578 0.24)">
        <g id="Group_17751" data-name="Group 17751">
          <path id="Path_13224" data-name="Path 13224" d="M560.191,862.126v12.012h-2.059l-4.633-6.521v6.521h-2.745V862.126h2.059l4.633,6.521v-6.521Z" transform="translate(-550.754 -862.126)" fill="#fff"/>
        </g>
      </g>
      <g id="Group_17754" data-name="Group 17754" transform="translate(11.144)">
        <g id="Group_17753" data-name="Group 17753">
          <path id="Path_13225" data-name="Path 13225" d="M200.295,867.1a6.246,6.246,0,1,1,6.246,6.246A6.193,6.193,0,0,1,200.295,867.1Zm9.746,0a3.5,3.5,0,1,0-3.5,3.569A3.416,3.416,0,0,0,210.041,867.1Z" transform="translate(-200.295 -860.858)" fill="#fff"/>
        </g>
      </g>
      <g id="Group_17756" data-name="Group 17756" transform="translate(119.3 0.24)">
        <g id="Group_17755" data-name="Group 17755">
          <path id="Path_13226" data-name="Path 13226" d="M779.771,864.769h-3.089v9.369h-2.746v-9.369h-3.089v-2.643h8.923Z" transform="translate(-770.848 -862.126)" fill="#fff"/>
        </g>
      </g>
      <g id="Group_17758" data-name="Group 17758" transform="translate(129.961 0.24)">
        <g id="Group_17757" data-name="Group 17757">
          <path id="Path_13227" data-name="Path 13227" d="M833.867,869.522v4.616h-2.745v-4.616l-4.032-7.4h3.123l2.282,4.633,2.282-4.633H837.9Z" transform="translate(-827.089 -862.126)" fill="#fff"/>
        </g>
      </g>
      <g id="Group_17760" data-name="Group 17760" transform="translate(89.181 0.24)">
        <g id="Group_17759" data-name="Group 17759">
          <path id="Path_13228" data-name="Path 13228" d="M621.228,862.126v12.012h-2.745v-4.771h-3.775v4.771h-2.746V862.126h2.746v4.6h3.775v-4.6Z" transform="translate(-611.962 -862.126)" fill="#fff"/>
        </g>
        <path id="Path_13229" data-name="Path 13229" d="M646.359,886.386" transform="translate(-639.839 -881.787)" fill="#fff"/>
      </g>
      <g id="Group_17762" data-name="Group 17762" transform="translate(40.111 0.24)">
        <g id="Group_17761" data-name="Group 17761">
          <path id="Path_13230" data-name="Path 13230" d="M362.373,862.126v12.012h-2.745v-4.771h-3.775v4.771h-2.745V862.126h2.745v4.6h3.775v-4.6Z" transform="translate(-353.107 -862.126)" fill="#fff"/>
        </g>
        <path id="Path_13231" data-name="Path 13231" d="M387.5,886.386" transform="translate(-380.984 -881.787)" fill="#fff"/>
      </g>
      <g id="Group_17764" data-name="Group 17764" transform="translate(0 0.24)">
        <g id="Group_17763" data-name="Group 17763">
          <path id="Path_13232" data-name="Path 13232" d="M150.776,862.126v12.011H148.03v-4.77h-3.775v4.77H141.51V862.126h2.745v4.6h3.775v-4.6Z" transform="translate(-141.51 -862.126)" fill="#fff"/>
        </g>
        <path id="Path_13233" data-name="Path 13233" d="M175.907,886.385" transform="translate(-169.387 -881.786)" fill="#fff"/>
      </g>
    </g>
    <g id="Group_17769" data-name="Group 17769" transform="translate(7167.037 -13237.967)">
      <g id="Group_17767" data-name="Group 17767" transform="translate(0 27.788)">
        <g id="Group_17766" data-name="Group 17766">
          <path id="Path_13234" data-name="Path 13234" d="M454.741,787.9c.549-.593-1-1.776-1.5-1.256a3.022,3.022,0,0,0-.626.834A1.351,1.351,0,0,0,454.741,787.9Z" transform="translate(-393.638 -782.952)" fill="#fff"/>
          <path id="Path_13235" data-name="Path 13235" d="M263.652,771.286c-6.891.684-9.066,1.023-11.31,1.227.531-.568,2.1-1.681,1.594-2.626-.429-.805-3.08,1.9-4,2.848-2.86.366-4.256.4-5.088.511-.872.118-.786.714-.025.687.446-.016,2.326-.2,4.573-.408a27.854,27.854,0,0,0-2.5,2.747c-.165.053-2.8,1.842-3.47,1.226-.434-.4.362-1.535.285-2.132-.113-.878-1.019-.9-1.967-.405a18.933,18.933,0,0,0-2.874,2.286,3.927,3.927,0,0,0,.855-2.123c-.12-1.35-2.189-1.2-4.533.578s-3.226,2.426-4.329,2.523-.878-.539-.682-.739,1.108-1.17.757-1.732c-.138-.221-.5.161-.561-.194s.155-1.427-1.4-1.539-3.642,1.293-4.578,2.3a2.882,2.882,0,0,0-.521.785,4.526,4.526,0,0,0-.9.33c-1.49.692-3.351.99-2.627.162.707-.809,1.734-1.178,1.837-2.525.157-2.051-3.187-2.774-4.071-1.809a.984.984,0,0,0-.143,1.217,8.122,8.122,0,0,1-2.982,2.092,2.749,2.749,0,0,1-2.091-.176,2.416,2.416,0,0,0,.285-.325c1.026-1.517-1.253-2.354-2.384-.991a1.266,1.266,0,0,0,.045,1.629,9.257,9.257,0,0,1-2.914,1.277c-1.581.368-3.437-.933-1.137-2.6,3.06-2.223,5.682-5.085,5.594-5.556-.139-.744-1.159-.992-3.861,1.517-1.164,1.081-2.656,2.333-3.857,3.534h0l0,.005q-.248.247-.476.491c-.164.163-2.369,2.248-3.706,2.636-2.252.655-1.824-1.289-.3-2.755s-.654-1.39-.654-1.39a9.385,9.385,0,0,1-1.205,1.122,2.309,2.309,0,0,1-2.993.136c-.713-.56-.177-2.1-.177-2.1,1.741-1.678,2.06-3.655.688-4.036-1.809-.5-2.171,3.69-2.171,3.69a23.321,23.321,0,0,1-4.679,4.288c-1.457.918-2.95,1.216-1.826-.958.531-1.027,3.319-5.093,3.319-5.093,2.014-3.418-2.019-3.173-2.019-3.173h0c-.449-.024-.968-.032-1.585-.013-3.954.125-21.467,2.134-45.261,11.187,0,0-.635,2.754,1.165,1.959,1.669-.736,27.826-11.023,44.026-12.192l.228-.016c1.3-.033,2,.2,1.171,1.824,0,0-2.831,4.277-3.182,4.928-1.374,2.545-.966,3.551.675,3.858,2.972.556,8.066-4.671,8.066-4.671.1,2.819,4.123,1.569,3.731,1.8-.36,1.411-.077,3.743,3.073,2.745,1.574-.5,3.291-2.341,3.593-2.573,0,0-.114,2.062,1.609,2.6,1.811.564,3.934-.52,5.844-1.786a3.809,3.809,0,0,0,3.337.237A11.309,11.309,0,0,0,218.346,775c.51-.754,2.659.151,1.956.865-.624.635-2.8,2.322-1.814,3.094,1.158.906,3.823-.312,5.192-1.039a1.214,1.214,0,0,0,.932,1.35c1.357.274,3.79-1.117,3.79-1.117s.274,1.227,2.287,1.117,3.935-2.107,5.342-2.865,1.889-.223,1.062.513-1.665,1.161-1.293,1.844a.91.91,0,0,0,1.049.478s.673-.389,1.447-.83c1.057-.6,2.652-1.819,2.861-1.288.149.378-.555,2.68,1.832,2.117a16.458,16.458,0,0,0,3.666-1.979,1.726,1.726,0,0,0,.739,1.878c1.393.726,4.44-.729,4.924-1.768.332-.713-.226-.471-2.237.069-2.286.614-1.779-.676-.653-2.072a12.2,12.2,0,0,1,1.947-1.841c37.066-3.189,28.153,3.115,30.908,1.6C285,773.625,279.658,769.7,263.652,771.286Zm-34.561,5.039c-1.027,1.036-4.019,2.465-3.747,1.211s2.473-2.208,3.092-2.385A.686.686,0,0,1,229.091,776.325Z" transform="translate(-141.51 -767.724)" fill="#fff"/>
        </g>
      </g>
      <path id="Path_13236" data-name="Path 13236" d="M280.4,633.838c-1.142.613.429,1.612,2.46,1.743,0,0,1.711-1.125,3.117-2.234.924-.729,1.632-1.447.23-1.79s-19.715-4.79-19.715-4.79.46-6.122-2.08-5.6c0,0-.174,3.816-.231,5.782a1.178,1.178,0,0,0,.834,1.161l16.55,5.062A12.966,12.966,0,0,1,280.4,633.838Z" transform="translate(-240.93 -621.136)" fill="#fff"/>
      <path id="Path_13237" data-name="Path 13237" d="M206.6,687.009a4.473,4.473,0,0,1-1.558,2.936,17.209,17.209,0,0,1-3.041,1.413l.8.275s.421,12.922.4,13.646-1.987,3.478-2.641,2.2-.317-15.025-.317-15.025a2.77,2.77,0,0,1-.875-1.542C199.281,689.8,206.6,687.009,206.6,687.009Z" transform="translate(-188.405 -674.522)" fill="#fff"/>
      <path id="Path_13238" data-name="Path 13238" d="M223.235,725.656s.167,6.363.13,7.113,1.563.284,1.615-1.214-.7-6.263-1.111-6.474S223.235,725.656,223.235,725.656Z" transform="translate(-207.743 -705.347)" fill="#fff"/>
      <path id="Path_13239" data-name="Path 13239" d="M336.812,715.7l.045,9.571s-2.361.725-2.618-.514.147-6,.288-7.43A1.7,1.7,0,0,1,336.812,715.7Z" transform="translate(-297.637 -697.719)" fill="#fff"/>
      <path id="Path_13240" data-name="Path 13240" d="M280.324,709.967s.854,5.043-2.63,5.1c-2.083.037-3.2-1.844-3.038-4.019.227-3.112,2.394-4.176,3.641-4.27a1.135,1.135,0,0,0-1.2-1.14c-2.123,0-4.392,2.3-4.4,6.869-.007,5.678,6.7,6.01,8.633,3.029a6.638,6.638,0,0,0,.893-4.773C282.135,710.132,281.615,709.238,280.324,709.967Z" transform="translate(-247.832 -689.623)" fill="#fff"/>
      <path id="Path_13241" data-name="Path 13241" d="M292.175,725.081c-.851.762-2.374,0-2.374,0s-.5-.91,1.534-.88c0,0-.118-3.125.9-2.982C292.235,721.219,292.964,724.373,292.175,725.081Z" transform="translate(-261.646 -702.243)" fill="#fff"/>
      <g id="Group_17768" data-name="Group 17768" transform="translate(19.398 10.107)">
        <path id="Path_13242" data-name="Path 13242" d="M250.93,701.1a1.252,1.252,0,0,0,1.353,1.2c.981,0,1.056-1.545,1.065-2.157.019-1.2.118-13.044.057-15.114l-1.882.888S250.91,700.57,250.93,701.1Z" transform="translate(-249.585 -683.02)" fill="#fff"/>
        <path id="Path_13243" data-name="Path 13243" d="M266.956,681.236a1.766,1.766,0,0,0-1.467-2.005c-3.5-1.1-12.763-3.722-13.881-4.036-1.387-.39-3.081-.948-3.935-.664a12.25,12.25,0,0,0-1.64.679c-.851.426-1.317.683-1.613,1.533l-.582,1.676,1.938-1.075,1.882-.889a2.674,2.674,0,0,1,1.87.093c1.92.654,17.091,6.057,17.242,5.506A5.8,5.8,0,0,0,266.956,681.236Z" transform="translate(-243.838 -674.453)" fill="#fff"/>
      </g>
      <path id="Path_13244" data-name="Path 13244" d="M187.292,661.474a5.021,5.021,0,0,0-3.012.051c-3.353,1.118-12.255,3.6-12.875,3.76-1.223.323-1.579.648-1.61.887-.081.62,3.348,1.168,3.971,1.168.143,0,10.051-3.712,13.573-5.033a.437.437,0,0,0-.03-.828Z" transform="translate(-164.432 -653.66)" fill="#fff"/>
    </g>
  </g>
</svg>
